<svg xmlns="http://www.w3.org/2000/svg" xmlns:xlink="http://www.w3.org/1999/xlink" version="1.1" x="0px" y="0px" width="100px" height="100px" viewBox="5.0 -10.0 100.0 135.0" enable-background="new 0 0 100 100" xml:space="preserve">
<g id="Captions">
	<rect x="-744" y="-138" width="185" height="99"/>
	<rect x="-552" y="-174" width="100" height="30"/>
	<text transform="matrix(1 0 0 1 -486 -157.5)" fill="#000000" font-family="'Helvetica'" font-size="2.4">http://thenounproject.com</text>
	<text transform="matrix(1 0 0 1 -544.834 -162.5)"><tspan x="0" y="0" fill="#000000" font-family="'Helvetica-Bold'" font-size="6.1578">The Noun Project</tspan><tspan x="1.12" y="4.8" fill="#000000" font-family="'Helvetica-Bold'" font-size="4">Icon Template</tspan></text>
	<text transform="matrix(1 0 0 1 -730.5 -127.5)" fill="#000000" font-family="'Helvetica-Bold'" font-size="6.1578">Reminders</text>
	<line fill="#000000" stroke="#FFFFFF" stroke-miterlimit="10" x1="-544" y1="-152.5" x2="-534" y2="-152.5"/>
	<line fill="#000000" stroke="#FFFFFF" stroke-miterlimit="10" x1="-731" y1="-121.5" x2="-714" y2="-121.5"/>
	<g>
		<g>
			<g>
				<rect x="-722.802" y="-106.682" fill="#000000" width="8.721" height="8.642"/>
				<path fill="#000000" d="M-716.455-95.688h4.747v-4.703h-4.747V-95.688z M-711.266-95.251h-5.63v-5.579h5.63V-95.251      L-711.266-95.251z M-718.221-93.938h8.279v-8.203h-8.279V-93.938L-718.221-93.938z M-709.5-93.5h-9.163v-9.079h9.163V-93.5      L-709.5-93.5z"/>
				<polygon fill="#000000" points="-718.149,-93.867 -718.292,-94.009 -710.013,-102.213 -709.871,-102.071     "/>
			</g>
		</g>
	</g>
	<rect x="-731" y="-80" fill="none" width="35" height="32.5"/>
	<text transform="matrix(1 0 0 1 -731 -77.8428)"><tspan x="0" y="0" fill="#000000" font-family="'Helvetica-Bold'" font-size="3">Strokes</tspan><tspan x="0" y="5" fill="#000000" font-family="'Helvetica'" font-size="2.4">Try to keep strokes at 4px</tspan><tspan x="0" y="10" fill="#000000" font-family="'Helvetica'" font-size="2.4">Minimum stroke weight is 2px</tspan><tspan x="0" y="14.5" fill="#000000" font-family="'Helvetica'" font-size="2.4">For thicker strokes use even </tspan><tspan x="0" y="17.5" fill="#000000" font-family="'Helvetica'" font-size="2.4">numbers: 6px, 8px etc.</tspan><tspan x="0" y="22" fill="#000000" font-family="'Helvetica-Bold'" font-size="2.4">Remember to expand strokes </tspan><tspan x="0" y="25" fill="#000000" font-family="'Helvetica-Bold'" font-size="2.4">before saving as an SVG </tspan></text>
	<rect x="-688.5" y="-80" fill="none" width="35" height="32.5"/>
	<text transform="matrix(1 0 0 1 -688.5 -77.8428)"><tspan x="0" y="0" fill="#000000" font-family="'Helvetica-Bold'" font-size="3">Size</tspan><tspan x="0" y="5" fill="#000000" font-family="'Helvetica'" font-size="2.4">Cannot be wider or taller than </tspan><tspan x="0" y="8.5" fill="#000000" font-family="'Helvetica'" font-size="2.4">100px (artboard size)</tspan><tspan x="0" y="13.5" fill="#000000" font-family="'Helvetica'" font-size="2.4">Scale your icon to fill as much of </tspan><tspan x="0" y="16.5" fill="#000000" font-family="'Helvetica'" font-size="2.4">the artboard as possible</tspan></text>
	<rect x="-646" y="-80" fill="none" width="35" height="32.5"/>
	<text transform="matrix(1 0 0 1 -646 -77.8428)"><tspan x="0" y="0" fill="#000000" font-family="'Helvetica-Bold'" font-size="3">Ungroup</tspan><tspan x="0" y="5" fill="#000000" font-family="'Helvetica'" font-size="2.4">If your design has more than one </tspan><tspan x="0" y="8" fill="#000000" font-family="'Helvetica'" font-size="2.4">shape, make sure to ungroup</tspan></text>
	<rect x="-602" y="-80" fill="none" width="35" height="32.5"/>
	<text transform="matrix(1 0 0 1 -602 -77.8428)"><tspan x="0" y="0" fill="#000000" font-family="'Helvetica-Bold'" font-size="3">Save as</tspan><tspan x="0" y="5" fill="#000000" font-family="'Helvetica'" font-size="2.4">Save as .SVG and make sure </tspan><tspan x="0" y="8" fill="#000000" font-family="'Helvetica'" font-size="2.4">&#8220;Use Artboards&#8221; is checked</tspan></text>
	<text transform="matrix(1.0074 0 0 1 -677.542 -107.4067)" fill="#000000" font-family="'Helvetica'" font-size="2.5731">100px</text>
	<text transform="matrix(1.0074 0 0 1 -593 -99)" fill="#000000" font-family="'Helvetica-Bold'" font-size="5.1462">.SVG</text>
	<rect x="-678.514" y="-103.185" fill="#000000" width="10.261" height="10.185"/>
	<rect x="-678.477" y="-106.234" fill="#000000" width="0.522" height="2.337"/>
	<rect x="-668.812" y="-106.234" fill="#000000" width="0.523" height="2.337"/>
	<rect x="-679" y="-105.663" fill="#000000" width="11.233" height="0.572"/>
	<g>
		<rect x="-635.805" y="-104.156" fill="#000000" width="10.305" height="10.156"/>
		<rect x="-628.809" y="-109.293" fill="#000000" width="3.308" height="3.261"/>
	</g>
	<rect x="-730.5" y="-115.5" fill="#000000" stroke="#FFFFFF" stroke-miterlimit="10" width="30" height="30"/>
	<rect x="-688.5" y="-115.5" fill="#000000" stroke="#FFFFFF" stroke-miterlimit="10" width="30" height="30"/>
	<rect x="-645.5" y="-115.5" fill="#000000" stroke="#FFFFFF" stroke-miterlimit="10" width="30" height="30"/>
	<rect x="-601.5" y="-115.5" fill="#000000" stroke="#FFFFFF" stroke-miterlimit="10" width="30" height="30"/>
</g>
<g id="Your_Icon">
	<polygon points="-355.775,-90.292 -345.129,-90.297 -345.129,-91.195 -353.607,-91.189 -343.559,-101.243 -344.193,-101.878    -354.877,-91.193 -357.899,-91.195 -357.899,-90.297 -355.77,-90.295  "/>
	<polygon points="-368.387,-91.191 -368.387,-90.293 -362.609,-90.293 -373.531,-101.215 -374.166,-100.58 -364.777,-91.191  "/>
	<polygon points="-361.816,-90.284 -361.816,-90.286 -361.821,-90.286  "/>
	<path d="M-348.112-67.746c18.074-2.185,25.357-20.417,25.677-21.24c0.43-1.105,0.286-2.351-0.385-3.33   c-0.669-0.979-1.778-1.562-2.964-1.562h-10.558c3.995-6.846,3.222-14.345,3.174-14.764c-0.206-1.817-1.742-3.191-3.569-3.191   c-14.115,0-20.424,6.628-23.23,12.929c-3.251-7.692-10.485-10.63-17.259-10.63c-0.928,0-1.525,0.062-1.636,0.074   c-1.819,0.202-3.194,1.74-3.194,3.57c0,0.673,0.019,1.325,0.058,1.955c-2.395-1.257-5.105-1.805-7.729-1.805   c-0.728,0-1.205,0.046-1.333,0.062c-1.82,0.201-3.196,1.74-3.196,3.569c0,3.425,0.656,6.117,1.659,8.231h-9.616   c-1.187,0-2.295,0.584-2.965,1.562c-0.67,0.979-0.813,2.225-0.387,3.33c0.322,0.823,7.605,19.056,25.68,21.24   c0.007,1.979,1.612,3.58,3.592,3.58h24.59C-349.725-64.166-348.119-65.767-348.112-67.746z M-402.215-90.286h18.471   c-3.35-1.265-6.921-4.359-6.921-11.824c0,0,0.351-0.038,0.937-0.038c2.858,0,11.289,0.93,11.679,11.862h8.726   c-4.42-1.667-9.141-5.751-9.141-15.605c0,0,0.465-0.052,1.238-0.052c3.773,0,14.894,1.23,15.41,15.657h3.31   c0.574-6.261,4.022-17.955,21.77-17.955c0,0,1.322,11.73-7.727,17.955h18.68c0,0-7.434,19.162-25.921,19.162v3.366h-24.59v-3.366   C-394.782-71.124-402.215-90.286-402.215-90.286z"/>
	<path d="M-369.295-90.286h-0.029c0.006,0.003,0.016,0.005,0.022,0.009L-369.295-90.286z"/>
	<polygon points="-378.05,-90.283 -378.05,-90.286 -378.058,-90.286  "/>
	<path d="M-383.713-90.286h-0.031c0.006,0.003,0.016,0.005,0.022,0.009L-383.713-90.286z"/>
	<polygon points="-387.718,-98.119 -380.788,-91.189 -382.813,-91.189 -382.813,-90.292 -378.62,-90.292 -387.083,-98.754  "/>
	<path d="M-483.871,49.177h-10.327c-9.368-0.281-22.102-1.467-24.625-5.749c-0.662-1.125-0.545-2.396,0.366-3.896   c1.422-2.531,4.979-4.831,9.29-6.243c-0.55,0.694-0.825,1.387-0.828,2.068c-0.007,1.486,1.267,2.782,3.684,3.751   c4.917,1.975,13.113,2.066,15.672-0.634c0.64-0.674,1.228-1.851,0.355-3.701c-2.152-2.753-6.567-4.088-12.064-3.668   c-1.159,0.088-2.313,0.248-3.448,0.471c1.254-0.757,2.957-1.594,5.26-2.495l-0.294-0.754c-3.218,1.259-5.596,2.515-7.122,3.759   c-5.144,1.411-9.538,4.071-11.202,7.037c-1.06,1.745-1.184,3.33-0.366,4.718c1.724,2.924,7.566,4.5,14.042,5.337h-19.155v0.81   h29.906c2.023,0.067,3.903,0.09,5.514,0.09c2.987,0,5.045-0.077,5.359-0.09c0.221-0.008,0.395-0.193,0.39-0.413   C-483.47,49.354-483.65,49.177-483.871,49.177z M-507.552,32.81c1.696-0.448,3.476-0.761,5.265-0.896   c5.238-0.408,9.382,0.824,11.315,3.278c0.515,1.109,0.432,2-0.257,2.725c-2.255,2.377-10.239,2.261-14.781,0.438   c-1.188-0.475-3.183-1.498-3.175-2.994C-509.183,34.8-508.88,33.928-507.552,32.81z"/>
	<path d="M-460.434,51.257c0.428-1.105,0.283-2.35-0.387-3.329s-1.778-1.563-2.965-1.563h-9.055   c0.462-1.265,0.582-2.602,0.347-3.956c-0.483-2.78-2.41-5.371-5.572-7.494c-2.431-1.626-5.353-2.776-8.711-3.43   c-3.093-4.771-9.23-7.562-16.868-7.562c-6.968,0-13.661,2.266-17.464,5.915c-3.048,2.926-3.679,5.752-3.476,7.949   c-3.964,2.601-5.822,5.718-6.602,8.577h-9.03c-1.187,0-2.295,0.584-2.965,1.563c-0.67,0.979-0.814,2.224-0.384,3.329   c0.319,0.823,7.603,19.056,25.677,21.24c0.007,1.979,1.612,3.58,3.593,3.58h24.59c1.979,0,3.585-1.601,3.592-3.58   C-468.039,70.312-460.756,52.08-460.434,51.257z M-489.705,69.119v3.366h-24.59v-3.366c-18.488,0-25.92-19.162-25.92-19.162h12.132   c0.068-5.061,3.321-8.298,7.736-10.444c-1.167-2.05-1.049-4.42,1.726-7.083c3.179-3.048,9.153-4.915,14.977-4.915   c6.224,0,12.274,2.13,14.562,7.223l-0.005,0.007c3.266,0.442,6.396,1.396,9.021,3.154c3.49,2.342,5.318,5.564,3.186,8.455   c0,0-2.499,3.08-4.716,3.604h17.812C-463.785,49.957-471.218,69.119-489.705,69.119z"/>
	<path d="M-322.435,54.004c0.429-1.104,0.285-2.351-0.386-3.329c-0.67-0.979-1.778-1.563-2.965-1.563h-76.43   c-1.187,0-2.295,0.585-2.966,1.563c-0.669,0.979-0.813,2.225-0.383,3.329c0.319,0.823,7.603,19.057,25.677,21.24   c0.007,1.979,1.611,3.58,3.592,3.58h24.589c1.981,0,3.586-1.601,3.593-3.58C-330.039,73.061-322.755,54.827-322.435,54.004z    M-351.706,71.866v3.366h-24.589v-3.366c-18.488,0-25.92-19.162-25.92-19.162h76.43C-325.785,52.704-333.218,71.866-351.706,71.866   z"/>
	<path d="M-367.345,39.685c0.495,0.717,0.647,1.717,0.401,2.609c-0.166,0.603-0.592,1.426-1.689,1.927l1.499,3.267   c1.835-0.843,3.133-2.348,3.653-4.237c0.529-1.915,0.192-4.01-0.903-5.602c-0.456-0.662-0.979-1.325-1.51-2.001   c-1.65-2.091-3.208-4.066-2.844-6.296c0.339-2.073,2.281-4.139,3.839-5.275l-2.116-2.9c-1.071,0.779-4.62,3.638-5.27,7.596   c-0.62,3.792,1.703,6.736,3.571,9.102C-368.232,38.484-367.757,39.084-367.345,39.685z"/>
	<path d="M-359.458,38.231c0.234,0.339,0.306,0.834,0.188,1.263c-0.114,0.412-0.388,0.722-0.812,0.916l1.498,3.268   c1.396-0.642,2.381-1.787,2.777-3.229c0.402-1.452,0.142-3.041-0.689-4.252c-0.314-0.456-0.672-0.912-1.036-1.375   c-1.242-1.573-1.982-2.613-1.796-3.771c0.163-0.986,1.105-2.258,2.348-3.161l-2.116-2.905c-0.767,0.56-3.303,2.605-3.776,5.485   c-0.456,2.806,1.193,4.898,2.52,6.579C-360.038,37.447-359.728,37.839-359.458,38.231z"/>
	<path d="M-184.82-94.303c-0.67-0.979-1.779-1.563-2.966-1.563h-76.43c-1.187,0-2.295,0.584-2.965,1.563   c-0.67,0.979-0.813,2.224-0.384,3.329c0.319,0.823,7.603,19.056,25.677,21.24c0.007,1.979,1.612,3.58,3.593,3.58h24.589   c1.98,0,3.586-1.601,3.593-3.58c18.074-2.185,25.358-20.417,25.679-21.24C-184.006-92.079-184.15-93.324-184.82-94.303z    M-213.706-73.111v3.366h-24.589v-3.366c-18.488,0-25.921-19.162-25.921-19.162h76.43   C-187.786-92.273-195.218-73.111-213.706-73.111z"/>
	
		<rect x="-255.854" y="-102.877" transform="matrix(0.8054 0.5927 -0.5927 0.8054 -108.9962 131.0182)" width="3.594" height="4.738"/>
	
		<rect x="-250.876" y="-102.305" transform="matrix(-0.5924 0.8057 -0.8057 -0.5924 -476.688 40.1721)" width="4.738" height="3.594"/>
	
		<rect x="-244.753" y="-102.877" transform="matrix(-0.8054 -0.5927 0.5927 -0.8054 -379.0767 -325.4545)" width="3.594" height="4.739"/>
	
		<rect x="-239.203" y="-102.877" transform="matrix(0.8054 0.5927 -0.5927 0.8054 -105.7566 121.1494)" width="3.594" height="4.738"/>
	
		<rect x="-233.652" y="-102.877" transform="matrix(0.8054 0.5927 -0.5927 0.8054 -104.6767 117.8596)" width="3.594" height="4.738"/>
	
		<rect x="-228.102" y="-102.877" transform="matrix(0.8053 0.5928 -0.5928 0.8053 -103.6315 114.5899)" width="3.593" height="4.738"/>
	
		<rect x="-222.551" y="-102.877" transform="matrix(0.8053 0.5928 -0.5928 0.8053 -102.551 111.2994)" width="3.593" height="4.738"/>
	
		<rect x="-217.001" y="-102.877" transform="matrix(0.8054 0.5927 -0.5927 0.8054 -101.4371 107.9908)" width="3.594" height="4.738"/>
	
		<rect x="-211.45" y="-102.877" transform="matrix(-0.8054 -0.5927 0.5927 -0.8054 -318.9495 -305.7167)" width="3.594" height="4.738"/>
	
		<rect x="-206.472" y="-102.305" transform="matrix(-0.5925 0.8056 -0.8056 -0.5925 -405.9987 4.3635)" width="4.739" height="3.594"/>
	
		<rect x="-200.922" y="-102.305" transform="matrix(-0.5924 0.8057 -0.8057 -0.5924 -397.1433 -0.0748)" width="4.738" height="3.594"/>
	
		<rect x="-246.549" y="-109.243" transform="matrix(0.8056 0.5925 -0.5925 0.8056 -110.9084 124.2357)" width="3.593" height="4.737"/>
	
		<rect x="-241.571" y="-108.67" transform="matrix(-0.5924 0.8057 -0.8057 -0.5924 -467.0003 22.5391)" width="4.738" height="3.593"/>
	
		<rect x="-236.021" y="-108.67" transform="matrix(-0.5924 0.8057 -0.8057 -0.5924 -458.1631 18.0677)" width="4.738" height="3.593"/>
	
		<rect x="-230.47" y="-108.67" transform="matrix(-0.5924 0.8057 -0.8057 -0.5924 -449.3235 13.5952)" width="4.738" height="3.592"/>
	
		<rect x="-224.92" y="-108.67" transform="matrix(-0.5924 0.8057 -0.8057 -0.5924 -440.4854 9.1234)" width="4.738" height="3.593"/>
	
		<rect x="-219.369" y="-108.67" transform="matrix(-0.5924 0.8057 -0.8057 -0.5924 -431.6466 4.6513)" width="4.738" height="3.593"/>
	
		<rect x="-213.82" y="-108.67" transform="matrix(-0.5925 0.8056 -0.8056 -0.5925 -422.8271 0.1449)" width="4.739" height="3.594"/>
	<polygon points="19.357,-92.835 32.832,-92.835 32.832,-86.161 19.357,-86.161 19.357,-85.39 32.832,-85.39 32.832,-78.078    19.357,-78.078 19.357,-77.307 32.832,-77.307 32.832,-72.547 33.582,-72.547 33.582,-92.835 37.218,-92.835 37.218,-93.574    19.357,-93.574  "/>
	<path d="M78.916-108.013c-0.684-0.846-1.711-1.337-2.797-1.337H23.882c-1.086,0-2.114,0.491-2.797,1.337l-9.808,12.161   c-0.868,1.076-1.042,2.558-0.446,3.805c0.598,1.249,1.858,2.044,3.242,2.044h0.29v19.76c0,0.952,0.378,1.866,1.052,2.54   s1.586,1.053,2.541,1.053h15.421c1.239,0,2.39-0.637,3.046-1.687l5.248-8.384c0.358-0.571,0.548-1.232,0.548-1.906v-11.376H74.63   v13.178c0,0.949,0.77,1.719,1.719,1.719s1.72-0.77,1.72-1.719v-13.178h2.849v19.76c0,0.949,0.77,1.719,1.719,1.719   s1.72-0.77,1.72-1.719v-19.76h1.572c1.384,0,2.646-0.795,3.241-2.044c0.597-1.247,0.423-2.729-0.445-3.805L78.916-108.013z    M38.633-93.596h-0.007v14.969l-5.249,8.384H17.956v-23.353h-3.883l9.809-12.161h52.237l9.809,12.161H38.633z"/>
	<path d="M-96.678,19.434c-0.625-0.727-1.397-1.439-2.229-2.057c-0.959-0.709-2.006-1.172-2.812-1.496   c-1.477-0.592-3.111-0.904-4.73-0.904c-0.637,0-1.273,0.047-1.898,0.141c-2.077,0.312-4.111,1.15-5.729,2.363   c-0.858,0.643-1.551,1.348-2.055,1.891c-0.696,0.744-1.274,1.611-1.819,2.732c-0.381,0.771-0.805,1.717-1.047,2.811   c-0.21,0.963-0.271,1.855-0.319,2.648c-0.008,0.096-0.011,0.195-0.011,0.293c0,0.004,0,0.01,0,0.012c0,0.004,0,0.004,0,0.006   c0,0,0,0.006,0,0.01c0,0,0,0.008,0,0.012c0,0.002,0,0.006,0,0.008c0,0.004,0,0.006,0,0.008c0,0,0,0.006,0,0.008   c0,0.004,0,0.01,0,0.01s0,0.002,0,0.004l0.002,0.027v0.002v0.006c0,0.002,0,0.006,0,0.006c0,0.006,0,0.006,0,0.006   c0,0.006,0,0.008,0,0.012c0,0.002,0,0.006,0,0.006c0,0.008,0,0.014,0,0.02c0,0.002,0,0.006,0,0.006l0.001,0.18c0,0,0,0,0,0.002   l0.002,0.168c0,0.002,0,0.002,0,0.002l0.006,0.51c0,0.064,0.003,0.131,0.007,0.193c0.11,6.162,0.573,12.633,1.381,19.258   c0.826,6.775,1.792,13.537,2.879,20.1c0.34,2.029,0.615,3.576,0.903,5.021l0.124,0.635c0.286,1.461,0.581,2.971,1.105,4.508   c0.271,0.783,0.604,1.684,1.066,2.572c0.459,0.875,1.218,2.121,2.538,2.975c0.896,0.576,1.894,0.879,2.893,0.879   c1.055,0,2.092-0.334,2.995-0.969c0.942-0.656,1.725-1.584,2.384-2.832c0.918-1.732,1.411-3.578,1.773-5.152   c0.337-1.459,0.602-2.92,0.86-4.332l0.103-0.564c0.62-3.416,1.172-6.793,1.643-10.041c0.926-6.404,1.866-13.281,2.468-20.188   c0.342-3.965,0.532-7.236,0.601-10.299l0.016-0.637c0.04-1.52,0.087-3.24-0.313-5.041C-94.346,22.955-95.333,20.99-96.678,19.434z    M-114.722,23.68c0.329-0.672,0.705-1.309,1.218-1.857c0.491-0.527,1.007-1.035,1.582-1.467c1.183-0.887,2.656-1.467,4.109-1.684   c0.45-0.068,0.906-0.102,1.364-0.102c1.157,0,2.319,0.217,3.391,0.645c0.69,0.277,1.415,0.607,2.011,1.049   c0.589,0.438,1.17,0.959,1.649,1.516c0.968,1.123,1.675,2.531,1.997,3.973c0.073,0.318,0.114,0.643,0.151,0.965l-0.358,0.008   c0.044,1.871-0.88,2.713-2.051,3.783c-0.638,0.582-1.362,1.242-1.999,2.139c-2.281,2.916-3.2,6.639-3.393,13.73   c-0.585,12.254-1.076,21.941-1.389,27.994c-0.312-6.051-0.803-15.738-1.389-27.986c-0.195-7.1-1.113-10.822-3.383-13.723   c-0.648-0.912-1.369-1.576-2.006-2.162c-1.169-1.076-2.092-1.924-2.06-3.777l-0.37-0.006c0.035-0.346,0.082-0.686,0.156-1.023   C-115.333,24.99-115.039,24.324-114.722,23.68z M-108.664,79.508c-0.344-0.66-0.608-1.367-0.854-2.07   c-0.513-1.512-0.793-3.119-1.104-4.68c-0.322-1.631-0.608-3.27-0.882-4.91c-1.095-6.627-2.044-13.277-2.857-19.947   c-0.785-6.438-1.26-12.92-1.354-19.406c0.407,1.068,1.182,1.801,1.998,2.551c0.641,0.588,1.304,1.199,1.915,2.059   c2.169,2.775,3.046,6.379,3.235,13.311c0.989,20.721,1.707,34.072,1.756,34.951c-0.186-0.049-0.368-0.123-0.551-0.24   C-107.946,80.748-108.345,80.115-108.664,79.508z M-97.771,40.633c-0.583,6.689-1.484,13.344-2.445,19.986   c-0.479,3.311-1.023,6.613-1.621,9.906c-0.292,1.584-0.568,3.172-0.93,4.74c-0.335,1.457-0.746,2.951-1.447,4.277   c-0.314,0.594-0.718,1.182-1.274,1.57c-0.189,0.133-0.383,0.209-0.575,0.258c0.046-0.836,0.764-14.199,1.755-34.965   c0.188-6.924,1.064-10.527,3.245-13.316c0.602-0.846,1.265-1.451,1.907-2.035c0.824-0.754,1.606-1.486,2.008-2.576   c0.003,0.697-0.021,1.395-0.036,2.086C-97.259,33.928-97.483,37.287-97.771,40.633z"/>
	<path d="M-57.875,22.424c-0.447-1.041-1.082-1.932-1.643-2.666c-0.732-0.945-1.578-1.631-2.313-2.203   c-0.488-0.387-1.069-0.814-1.807-1.15c-0.393-0.18-1.007-0.42-1.806-0.42c-0.443,0-0.874,0.074-1.279,0.221   c-0.781-0.779-1.82-1.227-2.888-1.227c-0.981,0-1.92,0.369-2.643,1.041c-0.063,0.059-0.125,0.119-0.181,0.178   c-0.393-0.146-0.817-0.229-1.255-0.229c-0.145,0-0.293,0.01-0.439,0.029l-0.091,0.01l0,0h-0.004l-0.005,0.002   c-0.481,0.057-0.946,0.213-1.365,0.455c-1.737,1-3.038,2.096-4.095,3.443c-0.656,0.83-1.168,1.646-1.547,2.477   c-0.389,0.857-0.774,1.771-0.949,2.848c-0.291,1.76-0.275,3.42-0.231,5.105c0.04,1.543,0.105,3.086,0.181,4.631   c0.361,7.049,1.211,13.928,2.073,20.312c0.44,3.287,0.937,6.656,1.47,10.012c0.517,3.207,1.078,6.615,1.793,9.965   c0.339,1.6,0.801,3.482,1.612,5.291c1.753,3.893,4.322,4.473,5.7,4.473c0.649,0,1.291-0.125,1.908-0.373   c1.666-0.668,2.583-1.896,3.125-2.766c0.49-0.775,0.915-1.67,1.289-2.717c0.635-1.797,0.983-3.588,1.293-5.166   c1.41-7.141,2.408-14.162,3.197-20.088c1.053-7.9,1.672-14.367,1.953-20.348c0.075-1.627,0.146-3.375,0.146-5.148   c0-0.955-0.031-1.986-0.245-3.064C-57.096,24.445-57.41,23.482-57.875,22.424z M-77.967,23.873c0.29-0.631,0.678-1.207,1.109-1.75   c0.846-1.08,1.875-1.865,3.057-2.547c0.017-0.002,0.03-0.004,0.044-0.004c0.249,0,0.271,0.287,0.332,0.492   c0.123,0.398,0.246,0.797,0.365,1.195c0.105,0.342,0.203,0.684,0.302,1.027c0.038,0.141,0.108,0.299,0.227,0.299   c0.038,0,0.082-0.018,0.131-0.059c0.312-0.25,0.489-0.695,0.707-1.021c0.46-0.695,0.919-1.387,1.381-2.08   c0.109-0.162,0.214-0.322,0.322-0.484c0.062-0.094,0.097-0.211,0.187-0.291c0.06-0.057,0.126-0.078,0.193-0.078   c0.161,0,0.324,0.131,0.417,0.252c0.163,0.223,0.294,0.479,0.45,0.709c0.243,0.361,0.481,0.723,0.724,1.086   c0.223,0.332,0.447,0.666,0.668,0.998c0.112,0.17,0.224,0.334,0.337,0.502c0.079,0.117,0.229,0.469,0.377,0.494   c0.009,0.002,0.018,0.002,0.027,0.002c0.241,0,0.325-0.609,0.371-0.756c0.121-0.41,0.24-0.816,0.361-1.223   c0.057-0.193,0.114-0.387,0.17-0.58c0.04-0.123,0.057-0.334,0.141-0.432c0.03-0.037,0.075-0.049,0.124-0.049   c0.109,0,0.244,0.064,0.316,0.098c0.395,0.182,0.753,0.449,1.093,0.721c0.597,0.461,1.2,0.949,1.663,1.545   c0.456,0.598,0.908,1.236,1.207,1.93c0.305,0.693,0.577,1.443,0.723,2.188c0.043,0.217,0.058,0.438,0.08,0.66l-0.359,0.008   c0.042,1.873-0.882,2.715-2.053,3.783c-0.637,0.582-1.362,1.242-1.997,2.137c-2.281,2.914-3.2,6.639-3.395,13.732   c-0.585,12.256-1.074,21.945-1.389,27.998c-0.312-6.053-0.801-15.74-1.385-27.992c-0.197-7.1-1.116-10.824-3.383-13.727   c-0.648-0.906-1.371-1.568-2.006-2.154c-1.171-1.076-2.096-1.926-2.062-3.779l-0.329-0.006c0.029-0.301,0.031-0.604,0.08-0.904   C-78.531,25.146-78.24,24.484-77.967,23.873z M-72.009,79.076c-0.651-1.449-1.045-3.02-1.375-4.57   c-0.692-3.234-1.234-6.512-1.759-9.779c-0.525-3.301-1.014-6.611-1.459-9.928c-0.898-6.643-1.702-13.312-2.044-20.01   c-0.075-1.516-0.139-3.031-0.179-4.543c-0.016-0.592-0.016-1.176-0.011-1.76c0.407,1.076,1.186,1.809,2.005,2.561   c0.641,0.588,1.304,1.197,1.916,2.055c2.167,2.775,3.044,6.379,3.234,13.309c0.991,20.811,1.709,34.188,1.753,34.969   C-70.9,81.137-71.631,79.922-72.009,79.076z M-62.334,53.438c-0.886,6.646-1.863,13.293-3.163,19.873   c-0.306,1.562-0.62,3.143-1.152,4.65c-0.249,0.699-0.552,1.387-0.949,2.018c-0.366,0.586-0.767,1.076-1.421,1.336   c-0.055,0.023-0.104,0.016-0.158,0.033c0.057-1.047,0.773-14.354,1.75-34.941c0.192-6.926,1.069-10.531,3.25-13.316   c0.602-0.846,1.265-1.449,1.904-2.035c0.821-0.748,1.601-1.479,2.006-2.561c-0.006,1.635-0.067,3.27-0.143,4.902   C-60.724,40.102-61.448,46.781-62.334,53.438z"/>
	<path d="M-476.324-108.639c-0.164-1.186-0.552-2.202-0.902-3.064c-0.23-0.579-0.522-1.24-0.989-1.9   c-0.251-0.353-0.663-0.867-1.354-1.267c-0.386-0.221-0.796-0.372-1.221-0.449c-0.284-1.064-0.962-1.972-1.886-2.505   c-0.85-0.491-1.848-0.64-2.809-0.419c-0.084,0.02-0.168,0.041-0.246,0.063c-0.266-0.325-0.593-0.605-0.972-0.825   c-0.126-0.072-0.258-0.139-0.396-0.197l-0.081-0.035l-0.003-0.001h-0.004l-0.005-0.003c-0.444-0.189-0.925-0.288-1.409-0.288   c-2.004,0-3.678,0.297-5.27,0.937c-0.979,0.39-1.831,0.838-2.575,1.37c-0.765,0.549-1.556,1.147-2.245,1.991   c-1.133,1.379-1.951,2.824-2.755,4.307c-0.188,0.345-0.375,0.691-0.561,1.039l0.126,0.242c-0.181-0.337-0.361-0.682-0.542-1.01   l-0.308-0.558c-0.721-1.335-1.54-2.849-2.791-4.207c-1.399-1.517-3.238-2.726-5.18-3.403c-0.905-0.316-1.93-0.547-2.958-0.664   c-1.186-0.137-2.324-0.014-3.182,0.109c-1.575,0.225-3.147,0.772-4.551,1.583c-0.551,0.317-1.081,0.677-1.572,1.072   c-1.644,1.307-2.987,3.051-3.781,4.91c-0.422,0.986-0.667,1.94-0.832,2.663c-0.231,0.993-0.298,2.035-0.211,3.277   c0.057,0.857,0.162,1.89,0.498,2.958c0.301,0.939,0.695,1.743,1.048,2.452c0.04,0.088,0.089,0.175,0.139,0.259   c0.002,0.004,0.004,0.01,0.004,0.01c0.003,0.005,0.003,0.005,0.005,0.007c0,0,0.001,0.005,0.005,0.009c0,0,0.004,0.005,0.006,0.011   c0,0,0.001,0.003,0.005,0.007c0,0.004,0.002,0.004,0.004,0.007c0,0,0.001,0.003,0.003,0.005l0.004,0.009   c0.002,0.002,0.002,0.002,0.002,0.002l0.016,0.022l0.001,0.004l0.002,0.004c0.002,0.003,0.004,0.005,0.004,0.007   c0.003,0.004,0.003,0.004,0.003,0.007c0.004,0.002,0.004,0.003,0.006,0.007s0.004,0.007,0.004,0.007   c0.003,0.006,0.006,0.011,0.009,0.017c0.001,0.001,0.003,0.005,0.003,0.005l0.09,0.154h0.001l0.087,0.147   c0.001,0,0.001,0,0.001,0.003l0.26,0.436c0.031,0.057,0.068,0.112,0.102,0.165c3.178,5.28,6.814,10.653,10.824,15.986   c2.379,3.163,4.801,6.279,7.234,9.355l-0.053-0.042c-1.905,2.951-3.536,5.469-4.852,7.498c1.14-2.231,2.561-5.014,4.234-8.28   l-0.504-0.642c-4.589,8.953-7.322,14.339-7.556,14.801c-0.723-0.699-0.747-2.114-0.652-3.035c0.161-1.58,0.604-3.14,1.093-4.646   c1.02-3.146,2.188-6.256,3.366-9.351c0.222-0.578,0.445-1.157,0.67-1.736l-2.548-3.348c-0.497,1.262-0.99,2.53-1.476,3.801   c-1.158,3.036-2.376,6.27-3.432,9.526c-0.505,1.557-1.049,3.416-1.249,5.388c-0.428,4.248,1.507,6.034,2.7,6.725   c0.562,0.324,1.18,0.538,1.84,0.63c1.775,0.256,3.185-0.352,4.087-0.832c0.814-0.425,1.629-0.988,2.476-1.709   c1.449-1.238,2.647-2.613,3.703-3.827c1.218-1.392,2.407-2.789,3.565-4.179l-0.053-0.065c1.284,1.553,2.286,2.742,3.242,3.832   l0.424,0.487c0.979,1.122,1.989,2.283,3.21,3.354c0.629,0.54,1.365,1.154,2.211,1.692c0.837,0.528,2.116,1.228,3.688,1.307   c1.062,0.052,2.077-0.186,2.943-0.685c0.913-0.527,1.643-1.336,2.109-2.338c0.487-1.04,0.701-2.233,0.648-3.644   c-0.072-1.958-0.568-3.804-1.04-5.349c-0.437-1.431-0.938-2.829-1.423-4.181l-0.192-0.54c-1.173-3.271-2.379-6.47-3.597-9.519   c-2.399-6.009-5.026-12.435-7.958-18.718c-0.778-1.663-1.508-3.172-2.217-4.592l0.019,0.034c0.561-1.077,1.125-2.154,1.7-3.219   c0.285-0.52,0.576-1.024,0.873-1.528c-0.185,1.135,0.124,2.16,0.456,3.221c0.261,0.83,0.531,1.688,0.633,2.736   c0.238,1.714,0.108,3.445-0.478,5.489l0.462,1.02c0.83-2.505,1.036-4.558,0.751-6.596c-0.107-1.111-0.402-2.046-0.662-2.873   c-0.475-1.516-0.851-2.711,0.106-4.301l-0.285-0.172c0.177-0.246,0.33-0.505,0.522-0.742c0.429-0.521,1.011-0.951,1.554-1.342   c0.566-0.403,1.187-0.707,1.833-0.961c1.272-0.514,2.557-0.677,3.922-0.677c0.016,0.006,0.028,0.011,0.038,0.018   c0.219,0.125,0.092,0.384,0.043,0.591c-0.092,0.405-0.186,0.814-0.281,1.219c-0.08,0.348-0.165,0.694-0.253,1.039   c-0.036,0.14-0.056,0.316,0.046,0.374c0.035,0.02,0.081,0.026,0.145,0.016c0.396-0.061,0.771-0.357,1.122-0.533   c0.747-0.372,1.491-0.74,2.235-1.11c0.175-0.086,0.348-0.173,0.522-0.258c0.102-0.053,0.189-0.133,0.309-0.16   c0.077-0.02,0.147-0.005,0.205,0.028c0.141,0.081,0.217,0.277,0.233,0.43c0.032,0.274,0.018,0.561,0.039,0.838   c0.027,0.435,0.057,0.867,0.081,1.302c0.027,0.4,0.056,0.8,0.08,1.2c0.015,0.2,0.024,0.4,0.042,0.602   c0.011,0.141-0.039,0.521,0.077,0.618c0.008,0.005,0.014,0.009,0.023,0.014c0.209,0.121,0.588-0.365,0.699-0.47   c0.309-0.293,0.618-0.586,0.926-0.879c0.145-0.138,0.292-0.277,0.437-0.416c0.098-0.086,0.213-0.261,0.337-0.304   c0.045-0.017,0.091-0.003,0.132,0.021c0.096,0.053,0.18,0.177,0.225,0.242c0.254,0.354,0.429,0.765,0.586,1.168   c0.285,0.7,0.565,1.424,0.667,2.172c0.099,0.744,0.172,1.524,0.082,2.273c-0.083,0.755-0.222,1.54-0.468,2.257   c-0.07,0.21-0.169,0.408-0.26,0.611l-0.315-0.173c-0.9,1.645-2.123,1.912-3.668,2.249c-0.844,0.186-1.802,0.396-2.802,0.854   c-2.555,1.028-4.679,2.824-7.132,6.167l0.342,0.794c2.473-3.452,4.565-5.268,7.083-6.28c0.943-0.432,1.819-0.623,2.666-0.809   c1.086-0.238,2.125-0.48,3.016-1.216c-0.817,1.416-1.69,2.798-2.571,4.174c-2.356,3.673-4.857,7.25-7.445,10.766l1.574,3.909   c3.477-4.651,6.352-8.771,8.895-12.735c0.878-1.371,1.814-2.849,2.702-4.384c0.478-0.827,0.967-1.734,1.319-2.776   c0.3-0.874,0.509-1.863,0.637-3.014C-476.104-106.634-476.209-107.723-476.324-108.639z M-523.486-103.03   c-0.143-0.314-0.273-0.635-0.375-0.963c-0.218-0.687-0.295-1.411-0.345-2.128c-0.051-0.746-0.041-1.486,0.127-2.217   c0.163-0.702,0.354-1.4,0.637-2.062c0.58-1.359,1.566-2.598,2.716-3.514c0.357-0.283,0.734-0.541,1.131-0.769   c1.004-0.579,2.119-0.974,3.26-1.137c0.736-0.105,1.528-0.182,2.267-0.098c0.729,0.084,1.491,0.246,2.186,0.488   c1.4,0.489,2.716,1.354,3.718,2.442c0.221,0.24,0.417,0.498,0.611,0.758l-0.305,0.189c0.974,1.598,0.593,2.789,0.115,4.299   c-0.263,0.823-0.559,1.759-0.663,2.854c-0.52,3.665,0.548,7.347,3.927,13.587c5.621,10.902,10.041,19.54,12.796,24.937   c-3.299-5.084-8.564-13.227-15.198-23.542c-3.717-6.052-6.373-8.814-9.79-10.193c-1.016-0.465-1.976-0.679-2.817-0.868   c-1.551-0.348-2.773-0.621-3.673-2.242L-523.486-103.03z M-504.319-69.91c-1.302,1.57-2.621,3.125-3.961,4.66   c-1.046,1.201-2.108,2.411-3.322,3.45c-0.567,0.482-1.172,0.926-1.832,1.273c-0.61,0.323-1.202,0.548-1.897,0.447   c-0.061-0.009-0.099-0.038-0.155-0.051c0.365-0.56,3.449-5.293,8.512-13.127c1.595,2.01,3.191,4.019,4.793,5.972L-504.319-69.91z    M-489.108-60.051c-0.692-0.035-1.355-0.383-1.937-0.749c-0.626-0.4-1.208-0.879-1.771-1.367c-1.203-1.053-2.248-2.305-3.298-3.501   c-1.096-1.251-2.162-2.526-3.22-3.81c-4.263-5.193-8.41-10.478-12.448-15.849c-3.899-5.183-7.55-10.558-10.876-16.129   c0.888,0.723,1.925,0.969,3.003,1.211c0.85,0.189,1.729,0.386,2.691,0.824c3.263,1.318,5.827,4.003,9.455,9.909   c11.217,17.452,18.515,28.654,18.999,29.394C-488.696-60.068-488.892-60.04-489.108-60.051z M-493.175-81.383   c1.242,3.108,2.423,6.24,3.551,9.391c0.54,1.516,1.096,3.031,1.563,4.57c0.44,1.428,0.831,2.929,0.888,4.427   c0.024,0.671-0.032,1.383-0.32,1.997c-0.098,0.21-0.226,0.371-0.368,0.512c-0.379-0.747-6.437-12.68-15.963-31.159   c-3.299-6.089-4.341-9.648-3.85-13.154c0.099-1.034,0.37-1.89,0.635-2.716c0.337-1.065,0.649-2.09,0.453-3.235   c0.349,0.602,0.677,1.216,1.012,1.823c1.616,2.951,3.102,5.973,4.524,9.013C-498.209-93.831-495.662-87.616-493.175-81.383z"/>
	<path d="M-65.094-66.064h-4.28l-1.112,3.893h-1.416v0.74h8.179v-0.74h-1.37V-66.064z M-68.814-65.324h2.982v3.1H-69.7   L-68.814-65.324z"/>
	<path d="M-47.812-60.273l-11.523-3.773v-11.14c0-1.984-1.609-3.593-3.593-3.593h-2.037c-1.967,0-3.569,1.582-3.593,3.549   l-0.04,3.324h-2.22c-1.604,0-3.019,1.064-3.455,2.61l-1.212,4.261h-5.743v-2.487h2.178c1.984,0,3.593-1.608,3.593-3.593v-1.242   v-1.313v-0.202c-0.007,0-0.014,0-0.014,0c-0.114-1.887-1.665-3.391-3.579-3.391h-15.272c-1.913,0-3.464,1.504-3.573,3.391   c-0.005,0-0.012,0-0.012,0l-0.008,0.202v1.313v1.242c0,1.984,1.609,3.593,3.593,3.593h2.856v2.487h-8.085v-21.156l10.684,3.086   c0.327,0.095,0.664,0.141,0.994,0.141c1.146,0,2.249-0.549,2.933-1.518c0.885-1.249,0.881-2.919-0.009-4.163l-6.606-9.252   c0,0,0.016,0,0.023,0c1.223,0,2.382-0.624,3.047-1.689c0.797-1.275,0.714-2.912-0.206-4.101l-13.646-17.65   c-0.681-0.878-1.729-1.395-2.842-1.395s-2.162,0.517-2.844,1.395l-13.646,17.65c-0.919,1.188-1.002,2.825-0.205,4.101   c0.665,1.065,1.824,1.689,3.047,1.689c0.007,0,0.015,0,0.022,0l-6.607,9.25c-0.89,1.246-0.896,2.916-0.011,4.165   c0.687,0.969,1.787,1.518,2.933,1.518c0.332,0,0.667-0.046,0.997-0.141l10.682-3.086V-64.3l-17.067,3.938   c-1.778,0.412-2.969,2.092-2.762,3.908c0.208,1.813,1.745,3.186,3.57,3.186h78.142c1.767,0,3.27-1.282,3.549-3.025   C-45.104-58.037-46.134-59.725-47.812-60.273z M-127.071-56.86l19.852-4.582v-29.525l-15.271,4.41l11.881-16.629l-8.218,1.697   l13.648-17.65l13.646,17.65l-8.216-1.697l11.875,16.629l-15.271-4.41v29.525h15.271v-9.673h-6.449v-1.242v-1.313h15.272v1.313   v1.242h-5.771v9.673h12.05l1.953-6.871h5.769l0.084-6.873h2.037v13.744l13.999,4.582H-127.071z"/>
	<rect x="-86.792" y="-70.944" width="0.826" height="0.739"/>
	<rect x="-86.792" y="-62.26" width="0.826" height="0.74"/>
	<path d="M60.691,33.506l-1.209-0.424c0.662-1.455,1.082-3.35,1.082-5.822c0-5.828-4.74-10.568-10.566-10.568   c-5.828,0-10.568,4.74-10.568,10.568c0,2.473,0.424,4.369,1.086,5.824l-1.205,0.422c-3.525,0.449-5.924,4.043-5.924,7.287v14.1   c0,2.953,1.926,5.461,4.586,6.338l3.723,19.17c0.328,1.689,1.809,2.908,3.525,2.908h10.031c1.77,0,3.277-1.291,3.549-3.041   l2.947-18.951c2.803-0.791,4.865-3.371,4.865-6.424v-14.1C66.613,37.549,64.217,33.957,60.691,33.506z M63.02,54.893   c0,1.699-1.375,3.078-3.074,3.078h-1.311l-3.383,21.744H45.221L41,57.971h-0.945c-1.701,0-3.074-1.379-3.074-3.078v-14.1   c0-1.697,1.373-3.74,3.074-3.74l8.072-2.818c-3.85,0-5.104-3.123-5.104-6.975s3.123-6.975,6.975-6.975s6.975,3.123,6.975,6.975   s-1.211,6.975-5.062,6.975l8.035,2.818c1.699,0,3.074,2.043,3.074,3.74V54.893z"/>
	<rect x="40.736" y="43.338" width="0.742" height="13.359"/>
	<rect x="58.477" y="43.338" width="0.738" height="13.359"/>
	<polygon points="43.465,58.557 49.629,58.557 49.629,77.57 50.369,77.57 50.369,58.557 56.377,58.557 56.377,57.816 43.465,57.816     "/>
	<path d="M-211.964,59.064h0.74V42.607c0-0.135-0.073-0.26-0.191-0.324l-14.411-7.98l24.798-2.555l-0.077-0.736l-25.854,2.664   l-18.396-10.188l45.236-6.336l-0.102-0.734l-46.212,6.473l-6.468-3.582l-0.358,0.65l41.294,22.865V59.064z"/>
	<path d="M-196.147,10.791c-0.081,0-0.162,0.004-0.241,0.008l-59.284,3.969c-0.06-0.002-0.119-0.004-0.177-0.004   c-0.447,0-0.896,0.082-1.323,0.256c-1.355,0.549-2.272,1.838-2.272,3.303v44.271c0,1.334,0.741,2.562,1.924,3.18l43.853,23.021   c0.522,0.277,1.098,0.414,1.67,0.414c0.646,0,1.287-0.176,1.859-0.52c1.073-0.65,1.732-1.816,1.732-3.074V64.654   c2.326-0.439,6.249-1.191,12.937-2.473c1.691-0.322,2.916-1.803,2.916-3.527v-44.27c0-0.996-0.412-1.945-1.14-2.627   C-194.362,11.135-195.239,10.791-196.147,10.791z M-196.147,58.654l-15.852,3.035v23.926l-43.854-23.021V18.322l0.054,0.055   l59.651-3.992V58.654z"/>
	<path d="M-474.765,177.6h-10.025v-10.027c0-0.953-0.379-1.867-1.054-2.539l-6.809-6.811c-0.674-0.674-1.588-1.053-2.54-1.053   h-13.618c-0.951,0-1.868,0.379-2.542,1.053l-6.807,6.811c-0.674,0.672-1.052,1.586-1.052,2.539V177.6h-10.024   c-1.984,0-3.593,1.607-3.593,3.592v27.236c0,0.951,0.379,1.865,1.053,2.539l6.807,6.809c0.674,0.674,1.589,1.055,2.541,1.055   h40.855c0.954,0,1.864-0.381,2.54-1.055l6.81-6.809c0.674-0.674,1.051-1.588,1.051-2.539v-27.236   C-471.172,179.207-472.78,177.6-474.765,177.6z M-474.765,208.428l-6.808,6.809h-40.855l-6.808-6.809v-27.236h13.618v-13.619   l6.807-6.811h13.618l6.81,6.811v13.619h13.618V208.428z"/>
	<path d="M-494.822,167.334c0-0.205-0.165-0.371-0.37-0.371h-13.618c-0.205,0-0.371,0.166-0.371,0.371v13.25h-3.642v0.74h4.013   h13.618h3.701v-0.74h-3.331V167.334z M-508.44,180.584v-12.881h12.878v12.881H-508.44z"/>
	<path d="M-410.911,143.709h41.964v10.041h-10.829v-3.194h-31.135v3.593h27.564c0.196,1.796,1.72,3.194,3.57,3.194h10.829   c1.983,0,3.593-1.608,3.593-3.593v-10.041c0-1.984-1.609-3.593-3.593-3.593h-41.964V143.709z"/>
	<path d="M-381.368,176.845c-0.144-0.024-0.288-0.036-0.432-0.036c-0.694,0-1.364,0.283-1.849,0.795   c-1.07,1.125-6.378,6.99-6.023,11.901c0.122,1.693,0.879,3.136,2.189,4.171c1.298,1.023,2.726,1.565,4.129,1.565   c1.872,0,3.574-0.967,4.67-2.651c2.097-3.229,1.811-8.428-0.786-14.269C-379.815,177.545-380.527,176.991-381.368,176.845z    M-383.354,192.69c-0.802,0-1.676-0.327-2.551-1.017c-4.331-3.421,4.104-12.315,4.104-12.315   C-378.157,187.551-380.185,192.69-383.354,192.69z"/>
	<path d="M-368.116,178.883c0.328,0.039,0.646,0.057,0.951,0.057c2.765,0,4.939-1.496,5.684-3.906   c0.986-3.213-0.575-8.426-7.926-13.419c-0.428-0.291-0.929-0.441-1.432-0.441c-0.322,0-0.649,0.062-0.957,0.188   c-0.79,0.32-1.369,1.013-1.541,1.848c-0.312,1.521-1.729,9.302,1.16,13.288C-371.181,177.871-369.775,178.695-368.116,178.883z    M-370.839,163.723c8.897,6.046,8.543,12.666,3.674,12.666c-0.215,0-0.436-0.013-0.665-0.039   C-373.315,175.729-370.839,163.723-370.839,163.723z"/>
	<path d="M-349.602,218.56c-0.428-0.292-0.93-0.442-1.434-0.442c-0.324,0-0.651,0.063-0.959,0.188   c-0.79,0.32-1.365,1.014-1.537,1.847c-0.315,1.521-1.733,9.304,1.157,13.289c0.997,1.375,2.4,2.199,4.061,2.388   c0.329,0.038,0.648,0.056,0.952,0.056c2.763,0,4.941-1.496,5.682-3.907C-340.69,228.765-342.253,223.551-349.602,218.56z    M-347.361,233.333c-0.213,0-0.438-0.012-0.665-0.039c-5.485-0.62-3.009-12.626-3.009-12.626   C-342.136,226.713-342.49,233.333-347.361,233.333z"/>
	<path d="M-321.365,157.94c-0.394-0.078-0.801-0.116-1.215-0.116c-1.08,0-2.043,0.273-2.673,0.479   c-1.011,0.338-1.898,0.765-2.561,1.103c-1.442,0.736-2.702,1.612-3.918,2.455l-0.549,0.381c-1.221,0.844-2.538,1.788-4.146,2.972   c-5.37,3.972-10.772,8.15-16.065,12.426c-5.226,4.223-10.089,8.563-14.467,12.918c-0.134,0.13-0.319,0.316-0.605,0.604   l-0.159,0.162c-0.004,0.002-0.004,0.004-0.007,0.006l-0.005,0.005c-0.063,0.064-0.144,0.149-0.202,0.22   c-0.53,0.622-1.109,1.307-1.625,2.136c-0.599,0.971-0.95,1.943-1.217,2.769c-0.266,0.822-0.573,1.93-0.593,3.226   c-0.013,0.667-0.012,1.691,0.155,2.769c0.313,2,1.189,4.021,2.469,5.696c1.382,1.812,3.212,3.219,5.289,4.068   c0.798,0.327,1.867,0.724,3.058,0.884c0.63,0.084,1.263,0.127,1.884,0.127c0.39,0,0.779-0.019,1.155-0.052   c2.033-0.18,4.11-0.897,5.839-2.024c1.552-1.023,2.721-2.293,3.749-3.412l0.424-0.459c2.06-2.22,4.201-4.698,6.739-7.806   c4.396-5.397,8.506-10.981,12.293-16.21c1.914-2.641,3.815-5.371,5.812-8.345l0.208-0.312c0.837-1.247,1.701-2.535,2.514-3.876   c0.839-1.387,1.767-3.055,2.315-4.936c0.396-1.341,0.481-2.557,0.257-3.705C-317.604,159.978-319.2,158.376-321.365,157.94z    M-350.233,180.435c5.228-4.223,10.538-8.333,15.939-12.328c1.34-0.987,2.688-1.962,4.054-2.906   c1.311-0.903,2.632-1.864,4.055-2.591c0.662-0.337,1.347-0.656,2.052-0.892c0.493-0.162,1.028-0.302,1.554-0.302   c0.169,0,0.341,0.015,0.505,0.047c0.215,0.043,0.397,0.118,0.562,0.21c-0.661,0.612-10.471,9.693-25.603,23.87   c-4.959,4.836-8.098,6.811-11.604,7.293c-1.024,0.188-1.923,0.162-2.789,0.143c-1.114-0.027-2.179-0.045-3.213,0.438   C-360.139,188.829-355.28,184.511-350.233,180.435z M-357.688,209.599c-0.271,0.024-0.549,0.037-0.829,0.037   c-0.475,0-0.951-0.034-1.409-0.095c-0.735-0.099-1.489-0.367-2.171-0.647c-1.491-0.611-2.819-1.646-3.795-2.923   c-0.892-1.169-1.545-2.612-1.773-4.068c-0.11-0.712-0.128-1.437-0.114-2.158c0.013-0.748,0.189-1.468,0.419-2.18   c0.222-0.685,0.474-1.367,0.852-1.979c0.183-0.293,0.386-0.571,0.6-0.842l0.27,0.253c1.267-1.353,2.53-1.32,4.109-1.277   c0.866,0.021,1.847,0.05,2.927-0.15c3.667-0.504,6.917-2.535,11.998-7.491c8.953-8.387,16.054-14.998,20.495-19.127   c-3.995,4.563-10.388,11.857-18.5,21.056c-4.804,5.23-6.737,8.543-7.13,12.204c-0.166,1.104-0.107,2.082-0.054,2.943   c0.096,1.582,0.171,2.831-1.162,4.146l0.251,0.255c-0.251,0.205-0.507,0.407-0.778,0.588   C-354.723,208.949-356.212,209.468-357.688,209.599z M-320.916,164.79c-0.422,1.442-1.167,2.802-1.94,4.081   c-0.835,1.376-1.737,2.711-2.633,4.048c-1.865,2.778-3.774,5.529-5.738,8.239c-3.935,5.435-7.923,10.836-12.165,16.045   c-2.126,2.6-4.301,5.167-6.588,7.63c-0.471,0.508-0.939,1.021-1.423,1.518c0.469-1.059,0.415-2.129,0.346-3.241   c-0.051-0.866-0.105-1.763,0.053-2.804c0.375-3.501,2.255-6.699,6.945-11.804c13.744-15.583,22.534-25.674,23.087-26.312   c0.107,0.172,0.193,0.359,0.235,0.588C-320.608,163.444-320.728,164.147-320.916,164.79z"/>
</g>
<text x="0.0" y="117.5" font-size="5.0" font-weight="bold" font-family="Helvetica Neue, Helvetica, Arial-Unicode, Arial, Sans-serif" fill="#000000">Created by Klara Zalokar</text><text x="0.0" y="122.5" font-size="5.0" font-weight="bold" font-family="Helvetica Neue, Helvetica, Arial-Unicode, Arial, Sans-serif" fill="#000000">from the Noun Project</text></svg>