<?xml version="1.0" encoding="UTF-8" standalone="no"?>
<svg width="34px" height="68px" viewBox="0 0 34 68" version="1.1" xmlns="http://www.w3.org/2000/svg" xmlns:xlink="http://www.w3.org/1999/xlink" xmlns:sketch="http://www.bohemiancoding.com/sketch/ns">
    <!-- Generator: Sketch 3.3.1 (12002) - http://www.bohemiancoding.com/sketch -->
    <title>noun_14741_cc</title>
    <desc>Created with Sketch.</desc>
    <defs></defs>
    <g id="Page-1" stroke="none" stroke-width="1" fill="none" fill-rule="evenodd" sketch:type="MSPage">
        <g id="noun_14741_cc" sketch:type="MSLayerGroup" fill="#000000">
            <g id="Your_Icon" sketch:type="MSShapeGroup">
                <path d="M27.691,17.506 L26.482,17.082 C27.144,15.627 27.564,13.732 27.564,11.26 C27.564,5.432 22.824,0.692 16.998,0.692 C11.17,0.692 6.43,5.432 6.43,11.26 C6.43,13.733 6.854,15.629 7.516,17.084 L6.311,17.506 C2.786,17.955 0.387,21.549 0.387,24.793 L0.387,38.893 C0.387,41.846 2.313,44.354 4.973,45.231 L8.696,64.401 C9.024,66.09 10.505,67.309 12.221,67.309 L22.252,67.309 C24.022,67.309 25.529,66.018 25.801,64.268 L28.748,45.317 C31.551,44.526 33.613,41.946 33.613,38.893 L33.613,24.793 C33.613,21.549 31.217,17.957 27.691,17.506 L27.691,17.506 Z M30.02,38.893 C30.02,40.592 28.645,41.971 26.946,41.971 L25.635,41.971 L22.252,63.715 L12.221,63.715 L8,41.971 L7.055,41.971 C5.354,41.971 3.981,40.592 3.981,38.893 L3.981,24.793 C3.981,23.096 5.354,21.053 7.055,21.053 L15.127,18.235 C11.277,18.235 10.023,15.112 10.023,11.26 C10.023,7.408 13.146,4.285 16.998,4.285 C20.85,4.285 23.973,7.408 23.973,11.26 C23.973,15.112 22.762,18.235 18.911,18.235 L26.946,21.053 C28.645,21.053 30.02,23.096 30.02,24.793 L30.02,38.893 L30.02,38.893 Z" id="Shape"></path>
                <rect id="Rectangle-path" x="7.736" y="27.338" width="0.742" height="13.359"></rect>
                <rect id="Rectangle-path" x="25.477" y="27.338" width="0.738" height="13.359"></rect>
                <path d="M10.465,42.557 L16.629,42.557 L16.629,61.57 L17.369,61.57 L17.369,42.557 L23.377,42.557 L23.377,41.816 L10.465,41.816 L10.465,42.557 Z" id="Shape"></path>
            </g>
        </g>
    </g>
</svg>