<?xml version="1.0" encoding="utf-8"?>
<!-- Generator: Adobe Illustrator 16.0.0, SVG Export Plug-In . SVG Version: 6.00 Build 0)  -->
<!DOCTYPE svg PUBLIC "-//W3C//DTD SVG 1.1//EN" "http://www.w3.org/Graphics/SVG/1.1/DTD/svg11.dtd">
<svg version="1.1" xmlns="http://www.w3.org/2000/svg" xmlns:xlink="http://www.w3.org/1999/xlink" x="0px" y="0px" width="424.7px"
	 height="217.9px" viewBox="0 0 424.7 217.9" enable-background="new 0 0 424.7 217.9" xml:space="preserve">
<g id="Layer_2" display="none">
	<rect x="-16.1" y="-52.8" display="inline" fill="#5D5D5D" width="465" height="461"/>
</g>
<g id="Layer_3" display="none">
	<polygon display="inline" fill="#5D5D5D" points="216.6,85.4 178.4,-52.8 233.9,-52.8 221,83.6 	"/>
</g>
<g id="Layer_1" display="none">
	<path display="inline" stroke="#333333" stroke-width="9" stroke-miterlimit="10" d="M25.1,85.4"/>
	<path display="inline" stroke="#333333" stroke-width="9" stroke-miterlimit="10" d="M47.5,78.9"/>
	
		<path display="inline" fill="#FFFFFF" stroke="#FFFFFF" stroke-width="6" stroke-linecap="round" stroke-linejoin="round" stroke-miterlimit="10" d="
		M151.2,162.7c0,0,0.4,41.7,44.4,37.9c0,0-43.1-37.9-14.3-40.1C210.1,158.3,151.2,162.7,151.2,162.7z"/>
	<g display="inline">
		<g>
			<path fill="#333333" d="M40.9,104.6c-2.4-0.5-4.2,4.4-4.6,6.6l-4.1,24l-8.2-2.6l8.2-51.8l8.8-2.2l-3.3,22.2
				c2.5-3.7,5.2-3.8,7.2-3.5c4,0.8,7.1,4.3,7.1,11.5c0,7.3-3.1,14.6-3.1,19.6c0,2.2,0.6,3.9,2.6,4.5c2.9,0.8,4-2.1,5.5-6.4l2.8,0.8
				c-3.7,13.9-8.8,14.2-12.1,13.2c-5.4-1.7-7.3-7.2-7.3-12.2c0-5.9,2.8-13.3,2.8-18.9C43.1,106.6,42.4,104.9,40.9,104.6z"/>
			<path fill="#333333" d="M71.3,140.1c5.7,1.7,9.3-1.5,13.1-6l2.6,0.7c-4.4,7.8-10.7,14.8-20.2,11.8c-6.5-2-10.6-7.5-10.6-17.8
				c0-10.5,4.3-31.5,18.7-28.7c6.6,1.3,8.2,6.1,8.2,10.9c0,11.2-8.2,17.7-16.7,16.1c-0.1,1.3-0.1,2.6-0.1,3.7
				C66.2,137.1,67.9,139.1,71.3,140.1z M75.5,105.2c-3.7-0.8-7.2,8.6-8.6,17.5c5.5,0.9,10.4-5.2,10.4-13.2
				C77.3,107.1,76.9,105.5,75.5,105.2z"/>
			<path fill="#333333" d="M104.7,86.3L95.3,139c-0.2,1.2-0.3,2.2-0.3,3.1c0,2.8,1,4,3.3,4.7c3.2,0.9,6.2-2.1,7.5-6.9l3.6,1
				c-4.8,15.4-13,15.1-17.3,13.7c-4.7-1.5-8.3-6.1-8.3-14.3c0-1.9,0.2-3.9,0.6-6.2l8.3-47.6L104.7,86.3z"/>
			<path fill="#333333" d="M128.4,89.8l-10.5,55.5c-0.3,1.3-0.4,2.3-0.4,3.3c0,3,1.2,4.2,3.7,5c3.6,1,6.9-2.1,8.3-7.1l4,1.1
				c-5.4,16.1-14.4,15.7-19.2,14.2c-5.2-1.6-9.2-6.6-9.2-15.2c0-1.9,0.3-4.1,0.7-6.5l9.2-50L128.4,89.8z"/>
			<path fill="#333333" d="M168.7,133.3c3.9,0.1,6.7-4.8,8-7l3.7,0.8c-2.3,5.1-5.7,12.2-11.7,14.4c-1.3,24-12.1,35.7-25,31.3
				c-9.1-3.1-15.4-10.4-15.4-23.7c0-13.4,6.1-40.2,26.8-35.9C163.4,115,168,121.8,168.7,133.3z M159.4,141c-1.7-1.2-2.5-3.2-2.5-6.3
				c0-3.4,1.2-5.2,3-5.7c-0.2-5.3-1.4-7.4-4-8c-7.3-1.7-13.3,19.1-13.3,30.9c0,8,1.3,10.2,5.1,11.4
				C152.7,164.9,157.8,155.3,159.4,141z"/>
		</g>
	</g>
	<g display="inline">
		
			<path fill="#FFFFFF" stroke="#FFFFFF" stroke-width="6" stroke-linecap="round" stroke-linejoin="round" stroke-miterlimit="10" d="
			M151.2,162.7c0,0,0.4,41.7,44.4,37.9c0,0-43.1-37.9-14.3-40.1C210.1,158.3,151.2,162.7,151.2,162.7z"/>
		<path fill="#FFFFFF" d="M201,122.2c17.9,46.4-28.7,77.1-90.3,70.1C60.4,186.7,16,156.8,3.6,124.8c-12.3-32,8.8-62.7,54.2-69.6
			C113.4,46.8,183.1,75.9,201,122.2z"/>
		<g>
			<g>
				<path fill="#333333" d="M34.9,104.6c-2.4-0.5-4.2,4.4-4.6,6.6l-4.1,24l-8.2-2.6l8.2-51.8l8.8-2.2l-3.3,22.2
					c2.5-3.7,5.2-3.8,7.2-3.5c4,0.8,7.1,4.3,7.1,11.5c0,7.3-3.1,14.6-3.1,19.6c0,2.2,0.6,3.9,2.6,4.5c2.9,0.8,4-2.1,5.5-6.4l2.8,0.8
					c-3.7,13.9-8.8,14.2-12.1,13.2c-5.4-1.7-7.3-7.2-7.3-12.2c0-5.9,2.8-13.3,2.8-18.9C37.1,106.6,36.4,104.9,34.9,104.6z"/>
				<path fill="#333333" d="M65.3,140.1c5.7,1.7,9.3-1.5,13.1-6l2.6,0.7c-4.4,7.8-10.7,14.8-20.2,11.8c-6.5-2-10.6-7.5-10.6-17.8
					c0-10.5,4.3-31.5,18.7-28.7c6.6,1.3,8.2,6.1,8.2,10.9c0,11.2-8.2,17.7-16.7,16.1c-0.1,1.3-0.1,2.6-0.1,3.7
					C60.2,137.1,61.9,139.1,65.3,140.1z M69.5,105.2c-3.7-0.8-7.2,8.6-8.6,17.5c5.5,0.9,10.4-5.2,10.4-13.2
					C71.3,107.1,70.9,105.5,69.5,105.2z"/>
				<path fill="#333333" d="M98.7,86.3L89.3,139c-0.2,1.2-0.3,2.2-0.3,3.1c0,2.8,1,4,3.3,4.7c3.2,0.9,6.2-2.1,7.5-6.9l3.6,1
					c-4.8,15.4-13,15.1-17.3,13.7c-4.7-1.5-8.3-6.1-8.3-14.3c0-1.9,0.2-3.9,0.6-6.2l8.3-47.6L98.7,86.3z"/>
				<path fill="#333333" d="M122.4,89.8l-10.5,55.5c-0.3,1.3-0.4,2.3-0.4,3.3c0,3,1.2,4.2,3.7,5c3.6,1,6.9-2.1,8.3-7.1l4,1.1
					c-5.4,16.1-14.4,15.7-19.2,14.2c-5.2-1.6-9.2-6.6-9.2-15.2c0-1.9,0.3-4.1,0.7-6.5l9.2-50L122.4,89.8z"/>
				<path fill="#333333" d="M162.7,133.3c3.9,0.1,6.7-4.8,8-7l3.7,0.8c-2.3,5.1-5.7,12.2-11.7,14.4c-1.3,24-12.1,35.7-25,31.3
					c-9.1-3.1-15.4-10.4-15.4-23.7c0-13.4,6.1-40.2,26.8-35.9C157.4,115,162,121.8,162.7,133.3z M153.4,141
					c-1.7-1.2-2.5-3.2-2.5-6.3c0-3.4,1.2-5.2,3-5.7c-0.2-5.3-1.4-7.4-4-8c-7.3-1.7-13.3,19.1-13.3,30.9c0,8,1.3,10.2,5.1,11.4
					C146.7,164.9,151.8,155.3,153.4,141z"/>
			</g>
		</g>
	</g>
	<path display="inline" fill="#FFFFFF" d="M201,122.2c17.9,46.4-28.7,77.1-90.3,70.1C60.4,186.7,16,156.8,3.6,124.8
		c-12.3-32,8.8-62.7,54.2-69.6C113.4,46.8,183.1,75.9,201,122.2z"/>
</g>
<g id="HELLO_2">
	<g>
		<path fill="#FFFFFF" d="M147.2,123.9c-0.2-5.6-1.2-7.9-3.5-8.5c-6.4-1.7-11.6,20.2-11.6,32.7c0,8.4,1.1,10.8,4.5,12.1
			c4.4,1.7,8.9-8.4,10.3-23.5c-1.5-1.3-2.2-3.3-2.2-6.6C144.6,126.5,145.6,124.5,147.2,123.9z"/>
		<path fill="#FFFFFF" d="M75,103.3c0-2.5-0.4-4.3-1.6-4.6c-3.2-0.8-6.3,9.1-7.5,18.5C70.7,118.2,75,111.7,75,103.3z"/>
		<path fill="#FFFFFF" d="M162.5,184c-1.2-2.5-2.2-5.1-2.9-7.7c20-11.5,29.7-32.6,20.5-59.1c-15.6-45.3-74.7-74.4-121.6-66.6
			c-38.3,6.3-55.8,36-45.1,67.3c10.7,31.3,48.6,60.8,91.1,66.8c13.4,1.9,25.8,1.3,36.8-1.2c4.1,11.4,13.8,24.4,36.4,22.2
			C177.7,205.6,168,195.3,162.5,184z M154.9,137.2c-1.2,25.4-10.6,37.8-21.9,33.1c-6.3-2.6-11.1-8.1-12.8-17.3
			c-4.4,7.1-9.7,6.5-12.9,5.3c-4-1.5-7.1-5.7-7.9-12.7c-4,6.8-8.7,6.4-11.6,5.3c-4.1-1.6-7.3-6.5-7.3-15.2c0-0.2,0-0.4,0-0.5
			c-3.6,5.8-8.4,9.7-14.9,7.3c-4.3-1.6-7.4-5.4-8.7-11.8c-2.8,6.3-5.8,6.3-8,5.5c-4.7-1.8-6.4-7.6-6.4-12.9c0-6.3,2.4-14,2.4-20
			c0-3.1-0.6-4.9-2-5.3c-2.1-0.5-3.7,4.6-4,7l-3.5,25.4l-7.2-2.7l7.2-54.8l7.7-2.3l-2.9,23.5c2.2-3.9,4.6-4.1,6.3-3.7
			c3.5,0.8,6.2,4.6,6.2,12.2c0,7.7-2.7,15.5-2.7,20.8c0,2.4,0.6,4.2,2.2,4.8c2,0.7,3.1-1.1,4.1-4.2c0-0.1,0-0.2,0-0.3
			c0-11.1,3.8-33.4,16.4-30.4c5.8,1.3,7.1,6.4,7.1,11.6c0,11.8-7.1,18.7-14.6,17c-0.1,1.4-0.1,2.7-0.1,3.9c0,6.7,1.5,8.8,4.4,9.9
			c5,1.8,8.1-1.6,11.4-6.4v0l7.3-50.4L99,78.6l-8.3,55.8c-0.2,1.3-0.3,2.3-0.3,3.3c0,3,0.9,4.2,2.9,4.9c2.8,1,5.4-2.2,6.5-7.3h0
			l8.1-53l11.7-0.1l-9.2,58.7c-0.2,1.4-0.3,2.5-0.3,3.5c0,3.1,1,4.5,3.2,5.3c2.4,0.8,4.6-0.9,6.1-4.1c0-0.2,0-0.3,0-0.4
			c0-14.2,5.4-42.5,23.4-38c7.4,1.9,11.4,9.1,12,21.2c3.4,0.1,5.9-5.1,7-7.4l3.2,0.9C163.1,127.3,160.1,134.9,154.9,137.2z"/>
	</g>
	<g>
		<g>
			<path fill="#FFFFFF" d="M195.9,208.8V51.9l16.4-3.2c6.9-1.3,11.9,1.5,14.9,8.3c3,5.9,4.4,15.6,4.4,28.8c0,13.2-1.5,23.5-4.5,31.5
				c-0.1,0.4-0.4,1.1-0.8,2.1c0.4,0.6,0.7,1.1,0.8,1.7c3,5.8,4.5,15.1,4.5,28.3c0,13.2-1.4,23.9-4.5,31.9c-3.2,9-8,15.3-14.9,18.9
				L195.9,208.8z M206.9,69.3v47.2l5.4-1.8c2.3-0.8,4.1-2,5.1-3.3c1-1.3,1.7-2.4,2.1-3.5c1.5-3.9,2.3-10.2,2.3-19.3
				c0-10.5-1-15.9-2.6-18.7c-1.7-2.6-4.1-2.5-6.8-1.8L206.9,69.3z M206.9,136.1v47.4l5.4-2.6c2.7-1.3,5.1-2.8,6.8-6.9
				c1.6-3.8,2.6-9.9,2.6-20.3c0-10.7-1.1-16.1-2.7-18.7c-1.7-2.4-4-1.9-6.7-0.9L206.9,136.1z"/>
			<path fill="#FFFFFF" d="M267.9,170.6l-7,4.3v-40.1c0-12-3.2-16.8-9-14.6l-6,2.1v60l-9,4.8V43.8l14.9-2.8
				c11.6-2.2,16.8,10,16.8,34.7c0,12.3-1.3,22.1-3.8,29.3c-0.1,0.2-0.3,0.6-0.3,1c-0.2,0.4-0.8,0.9-1,1.1c3.2,5.2,4.4,13.2,4.4,24.2
				V170.6z M245.9,104.3l5.8-1.9c2.3-0.8,4.1-1.9,5-3.3c0.8-1.4,1.4-2.5,1.7-3.1c1.4-3.9,2-9.9,2-18c0-9-0.7-14.2-2.1-17
				c-1.5-2.6-3.7-2.9-6.6-2.2l-5.8,1.3V104.3z"/>
			<path fill="#FFFFFF" d="M275.9,73.8c0-11.5,0.8-20.9,3.1-27.7c0.9-2.5,1.9-5.2,3.7-7.6c1.8-2.3,3.8-4.1,6.6-4.6
				c5.5-1.1,8.2,3.6,9.8,7.7c2.1,5.5,2.8,13.7,2.8,24.5v52.4c0,10.8-0.8,19.7-2.8,26.7c-1.6,5.3-4.4,12-9.9,14.9
				c-5.6,2.9-8.5-0.8-10.2-4.7c-2.3-5.2-3-13.7-3-25.3V73.8z M282.9,126.8c0,10.3,1,14.7,2.4,16.5c1.3,1.8,2.8,1.2,4,0.7
				c1-0.5,2.8-1.4,4.1-4.4c1.3-3,2.5-8.1,2.5-18.1V68c0-9.6-1.2-14.4-2.5-16.5c-1.3-2.1-3-1.7-4-1.5c-1.2,0.3-2.7,0.6-4,3.4
				c-1.4,2.8-2.4,8.2-2.4,18.2V126.8z"/>
			<path fill="#FFFFFF" d="M322.7,110.6l-8.5,3.6l-3.2,34.7l-6.8,3.6L316,28.8l5-1L331.9,138l-6.1,3.2L322.7,110.6z M315.7,98.6
				l5.6-2.2l-2.8-27.6L315.7,98.6z"/>
			<path fill="#FFFFFF" d="M333.9,137.5V25.6l8.6-1.7c7.2-1.4,10.4,9.2,10.4,28.5v44.4c0,19.3-3.2,32.4-10.4,36.1L333.9,137.5z
				 M337.9,38.5v82l3.5-1.5c1.4-0.7,2.9-1.7,3.8-4.5c0.9-2.8,1.7-7.4,1.7-15.4V53.9c0-8-0.6-12.2-1.5-14.3c-1-2.1-2.6-2.1-4-1.8
				L337.9,38.5z"/>
			<path fill="#FFFFFF" d="M379.1,78.4l4.7-62.6L388,15l-7.2,97.6l-3.5,1.8l-4.8-60.7l-5,65.8l-3.8,2l-8.5-100.2l5.1-1l5.3,63.5
				l5.1-65.5l3.6-0.7L379.1,78.4z"/>
			<path fill="#FFFFFF" d="M397.1,78.7l-5.3,2.2l-2,26.9l-4.2,2.2l7.2-96l3.1-0.6l6.8,87.7l-3.8,2L397.1,78.7z M392.8,68.8l3.4-1.3
				l-1.7-21.9L392.8,68.8z"/>
			<path fill="#FFFFFF" d="M408.9,42.9l5.4-32.9l3.4-0.7l-7.8,46v41.9l-3,1.8V56.5l-8-43.6l4.3-0.8L408.9,42.9z"/>
		</g>
	</g>
</g>
</svg>
